<svg xmlns="http://www.w3.org/2000/svg" viewBox="0 0 723.03 88.27"><defs><style>.cls-1{fill:#6669af;}</style></defs><g id="레이어_2" data-name="레이어 2"><g id="레이어_1-2" data-name="레이어 1"><path class="cls-1" d="M8.67,95.13,47,51.53H13V41.79H64.27v6.49L25.91,91.78H65.3v9.83H8.67Z" transform="translate(-8.67 -14.81)"/><path class="cls-1" d="M82.12,95.13l38.31-43.6h-34V41.79h51.28v6.49L99.36,91.78h39.39v9.83H82.12Z" transform="translate(-8.67 -14.81)"/><path class="cls-1" d="M156.1,85.82c0-13.41,12.17-20,42.37-22.28-.44-7.4-4.4-13.34-15-13.34-7.23,0-14.36,3.31-20.22,6.74l-4.65-8.14c6.71-4.14,16.66-8.48,27-8.48,16.49,0,25.07,9.47,25.07,25.26v36H200.6l-1-7.76h-.39c-6.39,5-14.71,9.23-22.9,9.23C164.89,103.08,156.1,96.35,156.1,85.82Zm42.37-.47v-14C175,73,168,77.75,168,84.9c0,6,5.39,8.49,11.79,8.49S192.28,90.39,198.47,85.35Z" transform="translate(-8.67 -14.81)"/><path class="cls-1" d="M229.74,71.8c0-20,15.5-31.48,33.67-31.48a30.91,30.91,0,0,1,21.95,8.58l-5.87,7.7c-4.83-4-9.74-6.25-15.55-6.25-12.86,0-21.72,8.56-21.72,21.45S251,93.05,263.61,93.05c7.09,0,13-3.16,17.74-7l5.24,7.85a36.48,36.48,0,0,1-24,9.21C243.87,103.08,229.74,91.62,229.74,71.8Z" transform="translate(-8.67 -14.81)"/><path class="cls-1" d="M305.72,14.81h12.2V71.25h.49l29.46-29.46h13.71L317.92,85.68v15.93h-12.2Zm23.51,56.27,7.22-7.8,28,38.33H351Z" transform="translate(-8.67 -14.81)"/><path class="cls-1" d="M375.92,95.13l38.32-43.6h-34V41.79h51.27v6.49l-38.35,43.5h39.39v9.83H375.92Z" transform="translate(-8.67 -14.81)"/><path class="cls-1" d="M449.38,95.13l38.31-43.6h-34V41.79H505v6.49l-38.36,43.5H506v9.83H449.38Z" transform="translate(-8.67 -14.81)"/><path class="cls-1" d="M523.36,85.82c0-13.41,12.16-20,42.37-22.28-.44-7.4-4.4-13.34-15-13.34-7.23,0-14.37,3.31-20.22,6.74l-4.66-8.14c6.72-4.14,16.67-8.48,27.05-8.48,16.49,0,25.06,9.47,25.06,25.26v36H567.85l-1-7.76h-.39c-6.4,5-14.72,9.23-22.9,9.23C532.15,103.08,523.36,96.35,523.36,85.82Zm42.37-.47v-14c-23.5,1.69-30.46,6.41-30.46,13.56,0,6,5.39,8.49,11.79,8.49S559.53,90.39,565.73,85.35Z" transform="translate(-8.67 -14.81)"/><path class="cls-1" d="M597,71.8c0-20,15.5-31.48,33.68-31.48a30.87,30.87,0,0,1,21.94,8.58l-5.86,7.7c-4.83-4-9.74-6.25-15.55-6.25-12.87,0-21.72,8.56-21.72,21.45s8.73,21.25,21.38,21.25c7.09,0,13-3.16,17.75-7l5.23,7.85a36.48,36.48,0,0,1-24,9.21C611.13,103.08,597,91.62,597,71.8Z" transform="translate(-8.67 -14.81)"/><path class="cls-1" d="M673,14.81h12.19V71.25h.49l29.46-29.46h13.71L685.17,85.68v15.93H673Zm23.51,56.27,7.21-7.8,28,38.33H718.28Z" transform="translate(-8.67 -14.81)"/></g></g></svg>