<?xml version="1.0" standalone="no"?>
<!DOCTYPE svg PUBLIC "-//W3C//DTD SVG 20010904//EN"
 "http://www.w3.org/TR/2001/REC-SVG-20010904/DTD/svg10.dtd">
<svg version="1.0" xmlns="http://www.w3.org/2000/svg"
 width="516.000000pt" height="1125.000000pt" viewBox="0 0 516.000000 1125.000000"
 preserveAspectRatio="xMidYMid meet">
<metadata>
Created by potrace 1.16, written by Peter Selinger 2001-2019
</metadata>
<g transform="translate(0.000000,1125.000000) scale(0.100000,-0.100000)"
fill="#000000" stroke="none">
<path d="M250 10728 c-42 -28 -59 -74 -67 -173 -7 -88 15 -152 45 -136 11 6
23 6 28 1 5 -5 43 -12 85 -16 l76 -6 7 68 c3 38 9 96 12 128 11 94 -21 138
-107 151 -36 5 -50 2 -79 -17z m94 -64 c9 -8 21 -24 26 -35 9 -17 7 -19 -17
-20 l-28 -1 29 -7 c16 -3 34 -13 39 -22 25 -40 -65 -109 -115 -90 -46 17 -62
48 -59 114 2 60 86 101 125 61z"/>
<path d="M1195 9599 c-113 -7 -201 -26 -295 -65 -68 -27 -113 -54 -92 -54 8 0
10 -5 6 -12 -4 -7 3 -4 16 7 13 11 20 15 17 8 -4 -6 -2 -15 4 -19 8 -4 9 -3 5
4 -4 7 5 10 29 8 19 -2 33 0 30 4 -3 5 -1 12 5 15 6 4 10 3 9 -2 -3 -20 2 -27
11 -13 9 13 10 13 10 0 0 -13 1 -13 10 0 8 13 10 13 10 1 0 -11 4 -9 15 5 15
19 15 19 8 -1 -3 -11 -3 -17 2 -13 4 4 15 2 23 -5 12 -9 14 -9 9 0 -6 9 2 11
28 9 19 -2 35 0 35 5 0 5 5 9 11 9 5 0 7 -6 3 -12 -6 -10 -4 -10 7 -2 8 5 20
9 27 8 6 -1 17 -2 23 -3 5 0 7 -7 3 -13 -4 -7 1 -6 12 3 10 9 26 15 34 14 8
-2 27 -5 43 -8 15 -3 25 -2 23 2 -3 4 12 6 32 5 54 -3 54 -3 46 -16 -5 -7 -3
-8 5 -4 7 5 10 15 7 25 -5 14 -4 14 6 -1 11 -15 13 -15 25 0 12 15 12 15 6 -3
-3 -11 -3 -17 2 -13 4 4 15 2 23 -5 9 -6 13 -7 10 -2 -4 7 16 11 57 11 37 0
61 -4 58 -10 -3 -5 -1 -6 6 -2 6 4 8 13 5 19 -4 7 -4 9 1 5 4 -4 15 -2 23 5
13 9 14 9 8 0 -6 -11 7 -18 17 -10 2 1 12 -5 22 -13 15 -12 17 -12 10 -1 -6
11 -4 13 7 8 9 -3 21 0 28 6 10 9 11 9 6 0 -4 -7 1 -10 11 -8 10 1 24 -3 32
-9 12 -9 13 -8 6 3 -6 11 -4 13 8 8 38 -14 13 5 -43 33 -137 69 -315 101 -505
89z"/>
<path d="M1165 9344 c-246 -35 -482 -225 -572 -462 -41 -110 -45 -168 -22
-327 22 -145 28 -165 62 -203 27 -29 16 -37 -59 -47 -63 -8 -79 -23 -70 -67 4
-18 7 -50 6 -70 0 -40 29 -78 61 -78 9 0 28 -9 42 -20 38 -30 65 -25 106 19
l37 40 24 -36 c37 -55 156 -158 216 -188 52 -26 60 -28 147 -22 163 11 298 64
396 158 74 70 87 67 115 -36 22 -77 74 -164 102 -171 12 -3 31 -1 41 4 12 7
24 7 36 0 43 -23 107 31 107 91 0 14 5 39 12 57 8 22 8 43 2 64 -8 28 -18 35
-72 55 -35 13 -66 25 -68 28 -3 3 11 26 31 52 88 116 123 256 111 444 -14 222
-97 407 -241 539 -103 95 -244 145 -301 107 -14 -9 -26 -15 -27 -13 -29 58
-60 77 -132 82 -33 2 -73 2 -90 0z m160 -430 c16 -20 71 -85 122 -143 78 -87
158 -192 197 -258 8 -14 -20 -6 -75 23 -93 47 -222 58 -289 24 l-38 -20 -48
21 c-34 16 -58 20 -90 15 -37 -5 -44 -2 -58 18 -28 43 -117 78 -214 85 l-86 6
49 43 c59 52 175 110 314 157 57 20 116 42 130 50 40 22 56 18 86 -21z m-372
-286 c73 -32 103 -84 81 -143 -5 -13 -11 -9 -30 19 -26 38 -48 53 -98 67 -34
10 -91 -4 -114 -28 -22 -21 -9 -25 27 -7 37 19 47 14 32 -14 -28 -53 -6 -78
80 -91 44 -7 52 -6 64 12 21 29 29 14 12 -20 -45 -86 -142 -116 -233 -72 -31
15 -48 32 -63 63 -25 51 -26 71 -5 144 18 64 36 89 68 95 38 9 130 -4 179 -25z
m239 -89 c22 -10 24 -16 24 -102 -1 -100 10 -131 61 -179 68 -65 178 -78 254
-29 57 36 88 85 96 151 3 28 13 58 21 67 14 13 17 13 28 -9 31 -60 28 -86 -17
-175 -51 -99 -104 -163 -192 -229 -108 -82 -265 -144 -362 -144 -44 0 -126 35
-181 76 -44 34 -141 155 -182 226 -29 51 -67 176 -57 187 3 2 15 -5 28 -16 63
-58 160 -72 235 -34 48 24 109 109 118 163 3 18 7 39 10 46 4 15 84 16 116 1z
m346 -16 c58 -28 77 -102 48 -186 -19 -52 -42 -76 -100 -103 -44 -20 -52 -21
-92 -9 -114 34 -158 94 -152 207 4 75 23 106 55 93 17 -7 17 -8 -2 -14 -12 -5
21 -13 93 -21 89 -10 115 -10 127 0 21 17 11 27 -43 45 l-47 15 40 -6 c22 -3
55 -13 73 -21z"/>
<path d="M960 8156 c0 -18 36 -63 61 -77 60 -32 154 -36 215 -9 46 20 123 93
82 77 -9 -3 -61 -9 -115 -12 -83 -6 -108 -4 -163 14 -77 25 -80 25 -80 7z"/>
<path d="M3597 9025 c-155 -30 -346 -119 -455 -214 -40 -35 -42 -39 -26 -52
11 -9 15 -9 10 -1 -4 6 -3 12 1 12 5 0 15 -6 22 -12 11 -10 13 -10 7 0 -4 6
-3 12 1 12 5 0 15 -6 22 -12 11 -10 13 -10 7 0 -4 6 -3 12 1 12 5 0 15 -6 22
-12 11 -10 13 -10 7 0 -4 6 -3 12 1 12 5 0 15 -6 22 -12 11 -10 13 -10 7 0 -4
6 -3 12 1 12 5 0 15 -6 22 -12 11 -11 13 -10 7 0 -8 14 19 12 43 -2 10 -6 12
-5 7 2 -8 14 20 12 43 -2 9 -6 12 -5 8 1 -4 7 9 10 36 8 58 -3 71 3 55 24 -9
13 -8 12 7 -1 19 -17 19 -18 0 -32 -11 -8 -24 -12 -29 -9 -5 4 -6 2 -3 -4 3
-5 -10 -25 -29 -44 -55 -52 -98 -124 -139 -234 -21 -55 -55 -140 -75 -190
-104 -250 -105 -338 -8 -565 78 -181 76 -262 -7 -290 -42 -14 -44 -24 -7 -47
15 -9 29 -18 31 -20 3 -2 -6 -14 -18 -27 l-23 -24 24 -8 c12 -4 52 -8 88 -10
36 -1 78 -7 93 -13 41 -16 133 -13 168 4 25 13 36 14 63 4 40 -14 95 -5 129
21 22 17 26 18 37 5 13 -15 56 -20 84 -9 9 3 25 21 36 40 l21 33 40 -21 c36
-19 43 -19 77 -6 28 11 39 21 47 49 6 22 15 34 23 31 20 -6 110 18 123 34 8
10 22 12 45 8 57 -11 64 3 64 132 0 90 3 114 14 114 7 0 16 14 20 30 3 17 20
51 36 76 76 110 80 182 20 359 -38 114 -40 124 -40 245 0 170 -13 229 -61 284
-21 24 -35 47 -31 50 4 4 2 6 -3 4 -6 -1 -12 2 -13 7 -2 6 -9 17 -15 25 -10
13 -10 13 4 3 12 -10 18 -10 29 0 12 10 12 9 3 -3 -10 -13 -8 -18 6 -27 14 -9
18 -8 18 3 0 7 -5 10 -10 7 -6 -3 -7 -1 -3 6 5 8 16 5 39 -11 17 -12 27 -17
23 -10 -9 15 6 16 20 2 7 -7 11 -6 11 4 0 8 -5 12 -10 9 -6 -4 -7 -1 -2 6 5 9
10 10 18 2 18 -18 31 -12 16 7 -13 15 -12 16 3 3 10 -7 16 -17 13 -21 -3 -5 0
-12 6 -16 7 -4 9 -3 5 4 -3 6 -2 13 4 17 5 3 10 1 10 -6 0 -7 3 -9 7 -5 17 16
-153 137 -262 187 -131 59 -227 80 -385 85 -101 2 -169 -1 -223 -11z m556
-421 c40 -20 85 -61 102 -94 10 -19 35 -144 35 -174 0 -3 -20 -6 -44 -6 -34 0
-52 -6 -72 -25 -15 -14 -31 -25 -36 -25 -5 0 -8 -17 -6 -37 3 -32 7 -38 36
-45 47 -13 76 5 68 43 -5 26 -3 28 12 20 32 -18 49 -47 61 -109 19 -97 -2
-157 -97 -275 -83 -105 -127 -123 -240 -97 -71 17 -227 95 -250 127 l-21 28
-1 -52 c0 -45 3 -53 19 -53 36 0 44 -114 10 -161 -17 -24 -27 -29 -64 -29 -24
0 -67 -5 -95 -12 -45 -10 -54 -10 -64 3 -22 30 -46 36 -88 25 -37 -10 -42 -9
-56 12 -9 14 -25 22 -43 22 -35 0 -42 19 -40 112 1 77 13 108 40 108 9 0 28
11 41 25 14 15 35 25 51 25 17 0 39 10 54 26 26 26 48 28 96 9 13 -5 19 4 28
42 18 74 118 316 156 381 67 112 121 154 245 187 36 10 69 21 74 26 9 8 35 0
89 -27z"/>
<path d="M3830 8321 c-12 -8 -8 -13 19 -24 l33 -14 -31 -11 c-17 -6 -31 -14
-31 -17 0 -3 5 -3 10 0 6 3 10 1 10 -4 0 -6 -10 -10 -21 -8 -12 1 -24 -4 -26
-10 -6 -17 38 -33 89 -33 l40 0 -4 40 c-4 47 11 52 47 15 23 -22 25 -23 25 -5
0 13 7 20 19 20 15 0 19 6 18 28 l-2 27 -90 3 c-50 1 -97 -2 -105 -7z"/>
<path d="M3700 6168 c-226 -15 -459 -126 -627 -297 -69 -70 -148 -174 -103
-136 l23 20 -6 -20 c-7 -19 -6 -19 7 -2 15 19 31 23 20 5 -6 -10 -4 -10 7 -2
17 12 68 12 88 0 10 -6 12 -5 7 2 -4 7 -3 12 3 12 5 0 12 -6 14 -12 4 -9 6 -9
6 1 1 11 4 10 14 -4 11 -14 16 -15 22 -5 5 9 4 11 -3 6 -7 -4 -12 -3 -12 2 0
5 11 10 25 10 14 0 25 -5 25 -10 0 -5 -5 -6 -12 -2 -7 5 -8 3 -3 -6 6 -10 10
-10 19 2 6 8 20 15 31 15 11 0 25 -7 31 -15 9 -12 13 -12 19 -2 5 9 4 11 -3 6
-7 -4 -12 -3 -12 3 0 5 8 9 19 8 10 0 18 -6 17 -12 -2 -10 -39 -94 -57 -127
-5 -10 -12 -34 -15 -53 -4 -28 0 -42 19 -65 37 -43 48 -110 37 -216 -6 -49 -8
-127 -5 -174 l5 -85 -19 40 c-20 43 -57 82 -68 71 -4 -3 7 -21 24 -39 34 -35
48 -78 58 -179 7 -65 6 -68 -16 -78 -22 -9 -21 -10 11 -7 l35 2 28 -84 c39
-117 114 -218 200 -269 15 -9 29 -24 32 -33 8 -24 121 -110 164 -125 20 -7 50
-10 66 -7 31 6 165 89 165 102 0 5 29 26 65 46 96 56 149 114 196 212 39 82
41 84 72 80 18 -2 24 -2 15 0 -24 6 -23 27 8 125 24 80 35 95 102 149 19 15 8
23 -22 15 -13 -3 -35 -23 -48 -43 l-23 -38 -3 27 c-2 15 2 36 8 48 6 11 15 79
20 150 7 114 12 136 35 175 14 25 30 45 35 45 5 0 14 9 21 21 20 39 -10 162
-66 271 -14 26 -21 49 -17 51 4 2 62 3 129 2 l121 -1 -31 44 c-75 104 -229
226 -362 288 -177 82 -324 107 -535 92z m235 -637 c150 -11 219 -46 325 -167
46 -53 50 -61 50 -108 0 -28 -5 -80 -11 -116 -5 -36 -14 -121 -18 -190 -16
-224 -84 -346 -266 -475 -95 -68 -176 -79 -161 -23 5 22 0 24 -71 33 -47 5
-53 4 -53 -13 0 -10 -6 -26 -13 -37 -13 -17 -16 -17 -68 7 -63 30 -174 137
-225 219 -62 97 -77 162 -81 354 -2 146 0 184 19 271 l22 101 70 50 c131 93
194 115 306 107 41 -3 120 -9 175 -13z"/>
<path d="M3510 5344 c-41 -18 -80 -52 -80 -70 0 -24 19 -25 61 -4 42 22 90 23
176 5 29 -6 33 -4 39 20 8 31 1 38 -45 54 -46 15 -109 13 -151 -5z"/>
<path d="M4008 5318 c-20 -7 -28 -17 -28 -33 0 -33 10 -36 72 -23 63 13 91 8
142 -27 46 -31 56 -31 56 -2 0 27 -42 71 -83 86 -35 13 -122 13 -159 -1z"/>
<path d="M3483 5141 c-32 -20 -59 -58 -49 -68 3 -3 8 2 12 11 6 15 53 46 69
46 3 0 1 -9 -5 -19 -19 -37 -12 -71 18 -82 37 -15 104 -18 120 -6 6 5 12 24
12 41 l1 31 24 -28 c18 -20 25 -23 25 -12 0 9 -17 34 -39 57 -35 38 -43 42
-97 45 -46 3 -66 0 -91 -16z"/>
<path d="M4014 5110 c-22 -9 -84 -75 -84 -91 0 -5 14 5 31 23 l30 33 -6 -30
c-10 -52 12 -69 86 -66 35 1 67 8 72 14 4 7 6 29 3 50 -2 20 0 37 4 37 4 0 22
-17 40 -37 27 -31 31 -33 25 -12 -21 70 -124 110 -201 79z"/>
<path d="M3720 4820 c0 -10 11 -27 25 -38 33 -26 18 -31 -59 -19 -85 13 -141
14 -143 2 -1 -5 40 -15 90 -22 151 -20 152 -20 151 0 -1 12 6 17 23 17 20 0
23 -3 14 -13 -6 -8 -8 -17 -4 -20 3 -4 55 -7 115 -7 74 0 108 -4 108 -11 0 -9
-21 -10 -72 -6 -40 3 -93 2 -118 -3 -28 -6 -60 -5 -84 1 -39 11 -199 38 -203
35 -8 -6 40 -87 68 -114 38 -38 112 -79 116 -66 2 5 24 7 49 5 32 -2 42 -6 33
-12 -29 -18 36 -9 81 12 55 25 96 62 121 112 11 20 24 37 29 37 6 0 10 6 10
14 0 20 -43 28 -119 21 -71 -7 -135 6 -95 19 21 6 50 54 39 64 -3 3 -12 -4
-21 -16 -22 -32 -96 -31 -129 3 -22 22 -25 22 -25 5z"/>
<path d="M1861 6105 c-1 -5 6 -35 14 -65 8 -30 15 -70 15 -89 l0 -34 -82 7
c-46 4 -128 11 -183 16 -238 22 -538 9 -830 -35 -82 -13 -154 -19 -159 -15
-10 10 -11 34 -3 127 6 63 6 66 -7 38 -17 -36 -39 -209 -31 -235 3 -10 21 -28
40 -39 19 -11 35 -27 35 -36 0 -9 -4 -13 -10 -10 -23 14 -8 -12 20 -35 28 -23
31 -32 36 -100 3 -41 12 -99 21 -128 11 -39 12 -56 4 -66 -9 -11 -6 -12 13 -9
20 4 27 -4 57 -62 80 -159 262 -302 430 -337 51 -10 64 -9 124 11 109 35 235
127 310 225 15 19 42 70 61 113 24 56 38 77 50 75 10 -2 13 1 9 8 -4 6 -2 32
4 58 6 26 12 61 15 78 6 45 33 95 69 126 22 19 27 28 16 28 -19 0 -49 -31 -66
-68 l-11 -27 -1 27 c-1 16 12 42 35 70 29 34 33 44 20 46 -24 5 -20 21 14 50
35 31 38 66 15 174 -12 59 -44 139 -44 113z m-321 -212 c14 -9 61 -47 105 -84
44 -37 93 -78 109 -92 27 -22 29 -28 27 -93 -5 -198 -55 -317 -190 -447 -93
-90 -196 -151 -274 -162 -95 -14 -259 69 -389 197 -102 101 -166 248 -175 404
-5 79 -4 82 19 87 31 9 122 89 158 142 28 41 34 44 87 50 32 3 83 10 113 15
30 5 129 7 220 4 129 -4 170 -8 190 -21z"/>
<path d="M1504 5679 c-33 -9 -94 -70 -94 -92 0 -7 8 -3 16 8 15 20 15 20 30 1
8 -11 14 -23 14 -28 0 -14 69 -9 100 7 23 12 30 13 30 3 0 -7 6 -4 12 6 6 11
11 35 10 53 -2 39 0 40 41 11 l32 -22 -19 22 c-32 37 -106 50 -172 31z"/>
<path d="M950 5669 c-34 -10 -80 -45 -80 -60 0 -5 11 3 25 16 34 35 45 31 45
-14 0 -52 18 -65 77 -57 27 3 56 7 66 8 10 1 20 13 24 26 l5 23 24 -22 c13
-12 24 -18 24 -12 0 15 -47 71 -69 82 -28 15 -104 20 -141 10z"/>
<path d="M1040 3825 c-178 -40 -321 -146 -356 -264 -8 -27 -21 -62 -29 -78 -8
-15 -15 -39 -15 -53 0 -14 -7 -34 -15 -44 -10 -14 -15 -45 -15 -100 0 -111 12
-254 19 -233 6 15 10 14 39 -10 26 -23 36 -43 52 -107 19 -81 19 -96 -4 -96
-21 0 -36 23 -61 97 l-24 68 5 -105 c9 -210 12 -230 40 -277 25 -43 80 -87 96
-77 4 3 8 16 8 30 0 30 6 30 33 -2 12 -14 40 -29 62 -34 50 -12 136 -12 153
-1 8 5 34 2 64 -6 33 -10 81 -14 143 -11 l93 3 4 -71 c2 -56 9 -79 30 -111 41
-61 104 -94 197 -100 86 -6 117 4 161 53 l25 28 -33 -27 c-47 -38 -99 -50
-171 -38 -65 11 -113 38 -155 88 -34 40 -46 82 -46 157 0 48 5 67 26 98 35 50
25 58 -23 21 -70 -55 -123 -77 -188 -77 -52 -1 -68 4 -125 38 -96 58 -200 167
-244 257 l-36 74 -1 175 c-1 275 27 361 131 403 28 12 87 13 303 9 252 -4 270
-6 299 -26 75 -50 107 -175 97 -381 -4 -71 -14 -173 -23 -225 -28 -168 -20
-184 47 -90 25 36 33 56 26 61 -27 16 21 171 62 201 32 24 37 38 15 38 -8 0
-28 -17 -45 -37 l-31 -38 0 31 c0 32 34 74 61 74 22 0 39 -21 40 -49 1 -19 4
-15 10 14 13 65 10 238 -5 281 -7 22 -17 59 -21 84 -24 150 -174 307 -349 367
-91 31 -233 39 -326 18z"/>
<path d="M3760 3444 c-215 -25 -398 -104 -565 -243 -62 -51 -156 -161 -149
-173 3 -5 12 -4 20 3 7 6 11 16 7 22 -3 6 -1 7 6 3 6 -4 8 -12 5 -18 -4 -6 -2
-8 4 -4 6 3 14 1 18 -5 5 -9 11 -7 21 6 7 11 13 13 13 6 0 -7 5 -9 10 -6 6 4
8 11 5 16 -10 15 2 10 16 -8 12 -14 12 -16 0 -8 -10 5 -12 4 -7 -4 11 -16 28
-2 22 18 -5 12 -2 11 9 -3 14 -18 20 -15 16 8 -1 5 4 5 11 0 7 -6 23 -9 35 -8
13 0 28 -5 35 -13 10 -12 14 -11 30 9 16 20 17 20 11 3 -6 -19 -6 -19 14 -2
16 14 20 14 20 2 0 -8 -5 -11 -10 -8 -6 4 -7 1 -2 -7 6 -10 12 -7 27 11 15 20
17 21 11 4 -6 -18 -5 -19 12 -5 16 12 15 9 -3 -17 -74 -106 -112 -249 -119
-455 -4 -90 -10 -145 -15 -141 -6 3 -5 -5 2 -17 7 -12 17 -41 24 -64 l12 -41
17 90 c9 50 17 99 17 111 0 23 54 104 70 104 6 0 10 -8 10 -18 0 -16 7 -18 60
-14 51 4 66 1 104 -22 46 -27 76 -33 76 -16 0 13 -81 59 -118 66 -18 4 -32 9
-32 13 1 12 77 41 110 41 33 0 33 0 14 -21 l-19 -21 55 8 c62 10 168 10 178 0
3 -4 0 -11 -8 -16 -11 -7 -8 -10 14 -10 38 0 136 26 199 53 57 24 117 25 117
1 0 -22 21 -17 52 13 21 20 29 23 33 12 57 -155 71 -305 40 -454 -14 -70 -31
-115 -78 -202 -114 -213 -233 -322 -432 -394 -27 -10 -42 -18 -33 -19 26 0
189 59 238 88 57 33 131 102 178 166 54 75 84 106 99 106 10 0 12 6 8 20 -6
18 1 43 37 142 5 15 17 29 25 32 11 5 13 2 9 -10 -3 -9 6 -4 22 12 15 16 36
34 47 41 16 10 17 12 4 12 -9 1 -28 -11 -43 -25 -14 -15 -26 -24 -26 -21 0 12
42 82 56 93 38 30 124 306 124 399 0 62 -19 154 -43 204 -29 63 -118 151 -145
144 -11 -3 -28 -1 -36 4 -15 8 -15 11 -1 28 15 20 15 20 8 0 -6 -20 -6 -20 15
-1 20 18 27 15 23 -8 -1 -5 4 -4 11 2 16 13 41 11 61 -6 13 -11 17 -10 26 5 6
11 11 13 11 5 0 -7 5 -10 10 -7 6 4 7 12 3 18 -5 9 -3 9 8 0 10 -8 19 -9 27
-3 7 6 10 7 7 4 -3 -4 0 -13 7 -21 9 -11 15 -10 33 7 14 13 25 17 29 11 4 -5
18 -8 31 -5 19 3 25 0 26 -13 0 -14 3 -12 10 5 7 20 2 31 -32 72 -124 147
-326 265 -539 314 -67 16 -257 27 -320 20z"/>
<path d="M853 3118 c-41 -14 -43 -26 -3 -20 29 4 30 3 24 -26 -6 -29 -5 -30
45 -41 82 -17 91 -15 91 19 0 37 15 39 34 3 8 -16 15 -24 16 -20 0 5 -8 22
-17 38 -31 53 -110 72 -190 47z"/>
<path d="M1315 3115 c-34 -18 -55 -42 -55 -63 0 -9 7 -6 20 9 l19 24 1 -31 c0
-39 6 -44 38 -34 15 5 44 11 66 15 35 6 38 8 34 36 -4 27 -2 29 26 30 l31 1
-30 13 c-40 19 -113 18 -150 0z"/>
<path d="M3464 2456 c-31 -14 -74 -60 -74 -79 0 -6 17 5 38 25 20 20 47 39 60
43 22 6 22 6 -3 -19 -26 -27 -33 -72 -15 -106 12 -22 69 -37 79 -21 4 6 17 12
30 14 27 4 41 23 41 57 l1 25 15 -25 15 -25 -7 25 c-23 84 -100 121 -180 86z"/>
<path d="M3530 1996 c0 -20 34 -68 62 -89 18 -13 68 -31 110 -41 74 -17 79
-17 135 1 57 18 155 94 140 109 -4 4 -14 1 -23 -7 -33 -27 -317 -8 -411 28 -7
3 -13 2 -13 -1z"/>
</g>
</svg>
