<?xml version="1.0" encoding="utf-8"?>
<!-- Generator: Adobe Illustrator 25.0.1, SVG Export Plug-In . SVG Version: 6.00 Build 0)  -->
<svg version="1.1" id="Layer_1" xmlns="http://www.w3.org/2000/svg" xmlns:xlink="http://www.w3.org/1999/xlink" x="0px"
	 y="0px" width="140" height="60"  viewBox="0 0 39.7 6.9" style="enable-background:new 0 0 140 60;" xml:space="preserve">
<style type="text/css">
	.st0{fill:#6669AF;}
</style>
<path class="st0" d="M1.9,4.8l2-2.3H2.2V2.1h2.7v0.3l-2,2.3h2.1v0.5H2L1.9,4.8L1.9,4.8z"/>
<path class="st0" d="M5.7,4.8l2-2.3H6V2.1h2.7v0.3l-2,2.3h2.1v0.5H5.8L5.7,4.8L5.7,4.8z"/>
<path class="st0" d="M9.6,4.3c0-0.7,0.6-1,2.2-1.1c0-0.4-0.2-0.7-0.8-0.7c-0.4,0-0.7,0.2-1.1,0.3L9.7,2.4c0.3-0.2,0.9-0.5,1.4-0.5
	c0.9,0,1.3,0.5,1.3,1.3v1.9h-0.5l0-0.4h0c-0.3,0.3-0.8,0.5-1.2,0.5C10.1,5.2,9.6,4.9,9.6,4.3z M11.8,4.3V3.6
	c-1.2,0.1-1.6,0.3-1.6,0.7c0,0.3,0.3,0.5,0.6,0.5C11.2,4.7,11.5,4.6,11.8,4.3z"/>
<path class="st0" d="M13.4,3.6c0-1,0.8-1.6,1.8-1.6c0.5,0,0.9,0.2,1.1,0.5L16,2.8c-0.2-0.2-0.5-0.3-0.8-0.3c-0.7,0-1.1,0.5-1.1,1.1
	s0.5,1.1,1.1,1.1c0.4,0,0.7-0.2,0.9-0.4l0.3,0.4C16,5,15.6,5.2,15.1,5.2C14.2,5.2,13.4,4.6,13.4,3.6z"/>
<path class="st0" d="M17.4,0.6H18v2.9h0L19.5,2h0.7L18,4.3v0.8h-0.6V0.6z M18.6,3.6L19,3.2l1.4,2h-0.7L18.6,3.6z"/>
<path class="st0" d="M21,4.8l2-2.3h-1.8V2.1h2.7v0.3l-2,2.3H24v0.5H21L21,4.8L21,4.8z"/>
<path class="st0" d="M24.8,4.8l2-2.3H25V2.1h2.7v0.3l-2,2.3h2.1v0.5h-2.9L24.8,4.8L24.8,4.8z"/>
<path class="st0" d="M28.7,4.3c0-0.7,0.6-1,2.2-1.1c0-0.4-0.2-0.7-0.8-0.7c-0.4,0-0.7,0.2-1.1,0.3l-0.2-0.4c0.3-0.2,0.9-0.5,1.4-0.5
	c0.9,0,1.3,0.5,1.3,1.3v1.9H31l0-0.4h0c-0.3,0.3-0.8,0.5-1.2,0.5C29.1,5.2,28.7,4.9,28.7,4.3z M30.9,4.3V3.6
	c-1.2,0.1-1.6,0.3-1.6,0.7c0,0.3,0.3,0.5,0.6,0.5C30.2,4.7,30.5,4.6,30.9,4.3z"/>
<path class="st0" d="M32.5,3.6c0-1,0.8-1.6,1.8-1.6c0.5,0,0.9,0.2,1.1,0.5l-0.3,0.4c-0.2-0.2-0.5-0.3-0.8-0.3
	c-0.7,0-1.1,0.5-1.1,1.1s0.5,1.1,1.1,1.1c0.4,0,0.7-0.2,0.9-0.4l0.3,0.4c-0.4,0.3-0.8,0.5-1.2,0.5C33.2,5.2,32.5,4.6,32.5,3.6z"/>
<path class="st0" d="M36.4,0.6h0.6v2.9h0L38.6,2h0.7L37,4.3v0.8h-0.6L36.4,0.6L36.4,0.6z M37.6,3.6L38,3.2l1.4,2h-0.7L37.6,3.6z"/>
</svg>
